<svg xmlns="http://www.w3.org/2000/svg" viewBox="0 14 51.400001525878906 37.5" data-asc="1.02" width="51.400001525878906" height="37.5"><defs/><g fill="#000000"><g transform="translate(0, 0)"><path d="M0 51L0 14.50L6 14.50L17.15 45.75Q17.05 44.50 16.93 42.67Q16.80 40.85 16.73 38.83Q16.65 36.80 16.65 35L16.65 14.50L21 14.50L21 51L15 51L3.90 19.75Q4 20.95 4.10 22.77Q4.20 24.60 4.28 26.63Q4.35 28.65 4.35 30.50L4.35 51L0 51ZM40.70 51.50Q37.40 51.50 34.98 50.25Q32.55 49 31.23 46.63Q29.90 44.25 29.90 41L29.90 24.50Q29.90 21.20 31.23 18.85Q32.55 16.50 34.98 15.25Q37.40 14 40.70 14Q44 14 46.40 15.27Q48.80 16.55 50.10 18.90Q51.40 21.25 51.40 24.50L46.90 24.50Q46.90 21.40 45.28 19.72Q43.65 18.05 40.70 18.05Q37.75 18.05 36.08 19.70Q34.40 21.35 34.40 24.45L34.40 41Q34.40 44.10 36.08 45.77Q37.75 47.45 40.70 47.45Q43.65 47.45 45.28 45.77Q46.90 44.10 46.90 41L51.40 41Q51.40 44.20 50.10 46.58Q48.80 48.95 46.40 50.23Q44 51.50 40.70 51.50Z"/></g></g></svg>